<svg xmlns="http://www.w3.org/2000/svg" viewBox="0 0 64 64" width="64" height="64">
  <defs>
    <linearGradient id="flame" x1="0.5" y1="1" x2="0.5" y2="0">
      <stop offset="0%" stop-color="#92400e"/>
      <stop offset="30%" stop-color="#d97706"/>
      <stop offset="60%" stop-color="#f59e0b"/>
      <stop offset="100%" stop-color="#fbbf24"/>
    </linearGradient>
    <linearGradient id="inner" x1="0.5" y1="1" x2="0.5" y2="0">
      <stop offset="0%" stop-color="#f59e0b"/>
      <stop offset="50%" stop-color="#fbbf24"/>
      <stop offset="100%" stop-color="#fef3c7"/>
    </linearGradient>
    <linearGradient id="base" x1="0" y1="0" x2="1" y2="1">
      <stop offset="0%" stop-color="#78350f"/>
      <stop offset="100%" stop-color="#451a03"/>
    </linearGradient>
  </defs>
  <!-- Anvil base -->
  <path d="M12 52 h40 l4 6 H8 z" fill="url(#base)"/>
  <path d="M16 48 h32 v4 H12 z" fill="#78350f"/>
  <!-- Outer flame -->
  <path d="M32 6 C38 14 48 22 48 34 C48 42 41 48 32 48 C23 48 16 42 16 34 C16 22 26 14 32 6 Z" fill="url(#flame)"/>
  <!-- Mid flame -->
  <path d="M32 16 C36 22 42 27 42 35 C42 40 37 44 32 44 C27 44 22 40 22 35 C22 27 28 22 32 16 Z" fill="url(#inner)" opacity="0.9"/>
  <!-- Inner bright core -->
  <path d="M32 26 C34 30 38 33 38 37 C38 40 35 42 32 42 C29 42 26 40 26 37 C26 33 30 30 32 26 Z" fill="#fef3c7" opacity="0.8"/>
  <!-- Spark accents -->
  <circle cx="24" cy="18" r="1.2" fill="#fbbf24" opacity="0.7"/>
  <circle cx="40" cy="14" r="1" fill="#f59e0b" opacity="0.6"/>
  <circle cx="21" cy="28" r="0.8" fill="#fbbf24" opacity="0.5"/>
</svg>
