<svg xmlns="http://www.w3.org/2000/svg" viewBox="0 0 64 64" width="64" height="64">
  <defs>
    <linearGradient id="flame" x1="0.5" y1="1" x2="0.5" y2="0">
      <stop offset="0%" stop-color="#92400e"/>
      <stop offset="30%" stop-color="#d97706"/>
      <stop offset="60%" stop-color="#f59e0b"/>
      <stop offset="100%" stop-color="#fbbf24"/>
    </linearGradient>
    <linearGradient id="inner" x1="0.5" y1="1" x2="0.5" y2="0">
      <stop offset="0%" stop-color="#f59e0b"/>
      <stop offset="50%" stop-color="#fbbf24"/>
      <stop offset="100%" stop-color="#fef3c7"/>
    </linearGradient>
    <linearGradient id="base" x1="0" y1="0" x2="1" y2="1">
      <stop offset="0%" stop-color="#78350f"/>
      <stop offset="100%" stop-color="#451a03"/>
    </linearGradient>
  </defs>
  <!-- Anvil base -->
  <path d="M12 52 h40 l4 6 H8 z" fill="url(#base)"/>
  <path d="M16 48 h32 v4 H12 z" fill="#78350f"/>
  <!-- Outer flame -->
  <path d="M32 6 C38 14 48 22 48 34 C48 42 41 48 32 48 C23 48 16 42 16 34 C16 22 26 14 32 6 Z" fill="url(#flame)"/>
  <!-- Mid flame -->
  <path d="M32 16 C36 22 42 27 42 35 C42 40 37 44 32 44 C27 44 22 40 22 35 C22 27 28 22 32 16 Z" fill="url(#inner)" opacity="0.9"/>
  <!-- Robot face -->
  <rect x="24" y="26" width="16" height="14" rx="3" fill="#451a03" opacity="0.85"/>
  <rect x="26.5" y="30" width="4" height="3" rx="0.5" fill="#fef3c7"/>
  <rect x="33.5" y="30" width="4" height="3" rx="0.5" fill="#fef3c7"/>
  <path d="M28 36.5 Q32 39.5 36 36.5" stroke="#fbbf24" stroke-width="1.2" fill="none" stroke-linecap="round" opacity="0.8"/>
  <!-- Antenna -->
  <line x1="32" y1="26" x2="32" y2="21" stroke="#451a03" stroke-width="1.5" stroke-linecap="round" opacity="0.85"/>
  <circle cx="32" cy="20" r="2" fill="#fbbf24" opacity="0.9"/>
  <!-- Spark accents -->
  <circle cx="24" cy="18" r="1.2" fill="#fbbf24" opacity="0.7"/>
  <circle cx="40" cy="14" r="1" fill="#f59e0b" opacity="0.6"/>
  <circle cx="21" cy="28" r="0.8" fill="#fbbf24" opacity="0.5"/>
</svg>
