<svg xmlns="http://www.w3.org/2000/svg" viewBox="0 0 64 64" width="256" height="256">
  <defs>
    <linearGradient id="flame2" x1="0.5" y1="1" x2="0.5" y2="0">
      <stop offset="0%" stop-color="#92400e"/>
      <stop offset="30%" stop-color="#d97706"/>
      <stop offset="60%" stop-color="#f59e0b"/>
      <stop offset="100%" stop-color="#fbbf24"/>
    </linearGradient>
    <linearGradient id="inner2" x1="0.5" y1="1" x2="0.5" y2="0">
      <stop offset="0%" stop-color="#f59e0b"/>
      <stop offset="50%" stop-color="#fbbf24"/>
      <stop offset="100%" stop-color="#fef3c7"/>
    </linearGradient>
    <linearGradient id="base2" x1="0" y1="0" x2="1" y2="1">
      <stop offset="0%" stop-color="#78350f"/>
      <stop offset="100%" stop-color="#451a03"/>
    </linearGradient>
    <linearGradient id="eyeglow" x1="0.5" y1="0" x2="0.5" y2="1">
      <stop offset="0%" stop-color="#fef3c7"/>
      <stop offset="100%" stop-color="#fbbf24"/>
    </linearGradient>
  </defs>
  <!-- Anvil base -->
  <path d="M12 52 h40 l4 6 H8 z" fill="url(#base2)"/>
  <path d="M16 48 h32 v4 H12 z" fill="#78350f"/>
  <!-- Outer flame — shaped as robot head silhouette -->
  <!-- Flame flows up around a face shape -->
  <path d="M32 4 C39 12 49 20 49 34 C49 43 41 49 32 49 C23 49 15 43 15 34 C15 20 25 12 32 4 Z" fill="url(#flame2)"/>
  <!-- Inner glow -->
  <path d="M32 14 C37 20 43 26 43 36 C43 41 38 45 32 45 C26 45 21 41 21 36 C21 26 27 20 32 14 Z" fill="url(#inner2)" opacity="0.85"/>
  <!-- Robot face - integrated into flame, minimal geometric -->
  <!-- Visor band across eyes -->
  <path d="M23 30 h18 v5 h-18 z" fill="#451a03" opacity="0.75" rx="2"/>
  <!-- Eyes - bright slots in visor -->
  <rect x="25" y="31" width="5" height="3" rx="1" fill="url(#eyeglow)"/>
  <rect x="34" y="31" width="5" height="3" rx="1" fill="url(#eyeglow)"/>
  <!-- Eye glow effect -->
  <rect x="25" y="31" width="5" height="3" rx="1" fill="#fef3c7" opacity="0.4" filter=""/>
  <rect x="34" y="31" width="5" height="3" rx="1" fill="#fef3c7" opacity="0.4"/>
  <!-- Subtle jaw line -->
  <path d="M26 38 h12 v2 q0 2 -2 2 h-8 q-2 0 -2 -2 z" fill="#451a03" opacity="0.5"/>
  <!-- Mouth slit -->
  <rect x="29" y="39" width="6" height="1" rx="0.5" fill="#fbbf24" opacity="0.7"/>
  <!-- Forehead plate hint -->
  <path d="M27 27 h10 v2 h-10 z" fill="#451a03" opacity="0.4" rx="1"/>
  <!-- Spark accents -->
  <circle cx="22" cy="16" r="1.2" fill="#fbbf24" opacity="0.7"/>
  <circle cx="41" cy="12" r="1" fill="#f59e0b" opacity="0.6"/>
  <circle cx="19" cy="26" r="0.8" fill="#fbbf24" opacity="0.5"/>
  <circle cx="43" cy="24" r="0.8" fill="#fbbf24" opacity="0.4"/>
</svg>
